# xmcd
#
# Track frame offsets:
# 150
# 67745
# 70382
# 79685
# 83612
# 92822
# 95357
# 104407
# 108142
# 116235
# 123145
# 125345
# 128490
# 133827
# 150750
# 152835
# 182087
# 187070
# 204217
# 207940
# 213630
# 221557
# 230670
# 234072
# 237910
# 250187
#
# Disc length: 4334 seconds
#
#
# Revision: 2
# Processed by: cddbd v1.5.2PL0 Copyright (c) Steve Scherf et al.
# Submitted via: FreeRIP 2.96 
#
DISCID=5c10ec1a
DTITLE=Bach-Busoni, Chopin-Wagner-Liszt - Jorge Bolet Live at Carnegie Hall
DYEAR=1900
DGENRE=classical
TTITLE0=Bach-Busoni Chaconne in D Minor
TTITLE1=Chopin Preludes, Op.28 in C Major
TTITLE2=Chopin Preludes, Op.28 in A Minor
TTITLE3=Chopin Preludes, Op.28 in E Minor
TTITLE4=Chopin Preludes, Op.28 in D Major
TTITLE5=Chopin Preludes, Op.28 in B Minor
TTITLE6=Chopin Preludes, Op.28 in B Minor
TTITLE7=Chopin Preludes, Op.28 in A Major
TTITLE8=Chopin Preludes, Op.28 in F-Sharp Minor
TTITLE9=Chopin Preludes, Op.28 in E Major
TTITLE10=Chopin Preludes, Op.28 in C-Sharp Minor
TTITLE11=Chopin Preludes, Op.28 in B Major
TTITLE12=Chopin Preludes, Op.28 in G-Sharp Major
TTITLE13=Chopin Preludes, Op.28 in F-Sharp Major
TTITLE14=Chopin Preludes, Op.28 in E-Flat Minor
TTITLE15=Chopin Preludes, Op.28 in D-Flat Major ("Raindrop")
TTITLE16=Chopin Preludes, Op.28 in B-Flat Minor
TTITLE17=Chopin Preludes, Op.28 in A-Flat Major
TTITLE18=Chopin Preludes, Op.28 in F Minor
TTITLE19=Chopin Preludes, Op.28 in E-Flat Major
TTITLE20=Chopin Preludes, Op.28 in C Minor
TTITLE21=Chopin Preludes, Op.28 in B-Flat Major
TTITLE22=Chopin Preludes, Op.28 in G Minor
TTITLE23=Chopin Preludes, Op.28 in F Major
TTITLE24=Chopin Preludes, Op.28 in D Minor
TTITLE25=Wagner-Liszt "Tannhauser" Overture
EXTD=
EXTT0=
EXTT1=
EXTT2=
EXTT3=
EXTT4=
EXTT5=
EXTT6=
EXTT7=
EXTT8=
EXTT9=
EXTT10=
EXTT11=
EXTT12=
EXTT13=
EXTT14=
EXTT15=
EXTT16=
EXTT17=
EXTT18=
EXTT19=
EXTT20=
EXTT21=
EXTT22=
EXTT23=
EXTT24=
EXTT25=
PLAYORDER=
